<?xml version="1.0" encoding="utf-8"?>
<!-- Svg Vector Icons : http://www.onlinewebfonts.com/icon -->
<!DOCTYPE svg PUBLIC "-//W3C//DTD SVG 1.1//EN" "http://www.w3.org/Graphics/SVG/1.1/DTD/svg11.dtd">
<svg version="1.1" xmlns="http://www.w3.org/2000/svg" xmlns:xlink="http://www.w3.org/1999/xlink" x="0px" y="0px" viewBox="0 0 256 256" enable-background="new 0 0 256 256" xml:space="preserve">
<metadata> Svg Vector Icons : http://www.onlinewebfonts.com/icon </metadata>
    <g><g><g><path fill="#000000" d="M107.6,10.4c-45,6.2-78.6,45.8-76.7,90.5c0.7,15.4,5.5,30.7,13.9,43.7l2.5,3.8l9.5-9.5l9.5-9.4l-3-6.2c-1.6-3.4-3.6-8.6-4.4-11.5c-1.3-4.8-1.4-6.4-1.4-14.4c0-7.9,0.2-9.6,1.4-14.3c2-7.3,4.3-12.5,8.1-18.5c6.3-9.8,17.5-19.3,27.8-23.6c16.9-7.1,36-6.2,51.8,2.2l3.9,2.1l9.5-9.5l9.5-9.5l-3.9-2.5c-9.1-5.8-19.5-10.1-30.5-12.4C128.6,10.1,113.8,9.5,107.6,10.4z"/><path fill="#000000" d="M123.4,109.4l-83.1,83.1l9.3,9.3l9.3,9.3l15.6-15.6l15.6-15.6l4.9,2.4c5.7,2.8,7.5,4,12,8.4c6.1,5.9,8.9,11.1,12.9,24.1c7.1,22.7,30.6,35.9,53.1,29.6c13-3.7,24.9-14.3,29.6-26.7c2.5-6.5,3.2-11,3.2-22.6v-10.3h-13.1h-13.1l-0.2,10.6c-0.2,10.2-0.2,10.6-1.7,13.6c-1.8,3.6-6,7.8-9.4,9.2c-1.3,0.6-3.7,1.2-5.4,1.4c-7.7,0.9-15.8-4.9-18.2-12.9c-4.8-16.4-9.4-24.5-19.4-34.5c-4.8-4.7-12.4-10.6-15-11.7c-0.3-0.1,2.2-3.1,5.8-6.6l6.3-6.5l3.5,2.5c1.9,1.4,4.9,3.8,6.6,5.3c1.8,1.5,3.3,2.8,3.6,2.8c0.2,0,2.7-2.4,5.6-5.2l5.1-5.1l-1.3-1.5c-0.8-0.8-3.7-3.4-6.5-5.9l-5.1-4.4l22.3-22.3c12.3-12.3,22.5-22.3,22.7-22.3c0.3,0,0.4,5.3,0.4,11.8v11.8h13.2h13.2l-0.3-14.4c-0.3-14.9-0.9-19.5-3.6-28.1l-1-3.2L213.1,57l12.1-12.1l-9.3-9.3l-9.3-9.3L123.4,109.4z"/><path fill="#000000" d="M88.8,65.4C75.6,77.2,71,96.7,77.6,113l1.4,3.6l6.7-6.7l6.7-6.7l-0.3-3.9c-0.4-4.7,0.4-8.6,2.6-13.2c1.6-3.3,5.3-7.6,8.4-10l1.6-1.2l-6-6c-3.3-3.3-6.3-6-6.6-6C91.8,62.9,90.3,64,88.8,65.4z"/></g></g></g>
</svg>